<svg width="20" height="20" viewBox="0 0 20 20" fill="none" xmlns="http://www.w3.org/2000/svg">
<rect x="5" y="2" width="10" height="16" rx="1" fill="#4CD080"/>
<path d="M16.25 6.875C16.4158 6.875 16.5747 6.80915 16.6919 6.69194C16.8092 6.57473 16.875 6.41576 16.875 6.25V1.875C16.875 1.37772 16.6775 0.900805 16.3258 0.549175C15.9742 0.197544 15.4973 0 15 0L5 0C4.50272 0 4.02581 0.197544 3.67417 0.549175C3.32254 0.900805 3.125 1.37772 3.125 1.875V18.125C3.125 18.6223 3.32254 19.0992 3.67417 19.4508C4.02581 19.8025 4.50272 20 5 20H15C15.4973 20 15.9742 19.8025 16.3258 19.4508C16.6775 19.0992 16.875 18.6223 16.875 18.125V8.75C16.875 8.58424 16.8092 8.42527 16.6919 8.30806C16.5747 8.19085 16.4158 8.125 16.25 8.125C16.0842 8.125 15.9253 8.19085 15.8081 8.30806C15.6908 8.42527 15.625 8.58424 15.625 8.75V18.125C15.625 18.2908 15.5592 18.4497 15.4419 18.5669C15.3247 18.6842 15.1658 18.75 15 18.75H5C4.83424 18.75 4.67527 18.6842 4.55806 18.5669C4.44085 18.4497 4.375 18.2908 4.375 18.125V6.875H16.25ZM5 1.25H15C15.1658 1.25 15.3247 1.31585 15.4419 1.43306C15.5592 1.55027 15.625 1.70924 15.625 1.875V5.625H4.375V1.875C4.375 1.70924 4.44085 1.55027 4.55806 1.43306C4.67527 1.31585 4.83424 1.25 5 1.25Z" fill="#1A202C"/>
<path d="M10.625 12.5875V8.75C10.625 8.58424 10.5592 8.42527 10.4419 8.30806C10.3247 8.19085 10.1658 8.125 10 8.125H8.75001C8.58425 8.125 8.42527 8.19085 8.30806 8.30806C8.19085 8.42527 8.12501 8.58424 8.12501 8.75C8.12501 8.91576 8.19085 9.07473 8.30806 9.19194C8.42527 9.30915 8.58425 9.375 8.75001 9.375H9.37501V10.625H8.75001C8.58425 10.625 8.42527 10.6908 8.30806 10.8081C8.19085 10.9253 8.12501 11.0842 8.12501 11.25C8.12501 11.4158 8.19085 11.5747 8.30806 11.6919C8.42527 11.8092 8.58425 11.875 8.75001 11.875H9.37501V12.5875C8.78584 12.7396 8.27239 13.1014 7.93088 13.605C7.58937 14.1086 7.44326 14.7195 7.51993 15.3231C7.5966 15.9268 7.89079 16.4817 8.34736 16.884C8.80393 17.2862 9.39152 17.5081 10 17.5081C10.6085 17.5081 11.1961 17.2862 11.6527 16.884C12.1092 16.4817 12.4034 15.9268 12.4801 15.3231C12.5568 14.7195 12.4106 14.1086 12.0691 13.605C11.7276 13.1014 11.2142 12.7396 10.625 12.5875ZM10 16.25C9.75278 16.25 9.5111 16.1767 9.30554 16.0393C9.09998 15.902 8.93977 15.7068 8.84516 15.4784C8.75055 15.2499 8.72579 14.9986 8.77402 14.7561C8.82226 14.5137 8.94131 14.2909 9.11612 14.1161C9.29094 13.9413 9.51367 13.8222 9.75614 13.774C9.99862 13.7258 10.25 13.7505 10.4784 13.8452C10.7068 13.9398 10.902 14.1 11.0393 14.3055C11.1767 14.5111 11.25 14.7528 11.25 15C11.25 15.3315 11.1183 15.6495 10.8839 15.8839C10.6495 16.1183 10.3315 16.25 10 16.25Z" fill="#1A202C"/>
</svg>
