<svg width="20" height="20" viewBox="0 0 20 20" fill="none" xmlns="http://www.w3.org/2000/svg">
<path d="M13.6371 18.7497H6.36213C5.53941 18.7803 4.73788 18.4849 4.13167 17.9279C3.52547 17.3708 3.16358 16.5971 3.12463 15.7747V11.8747C3.12463 11.709 3.19048 11.55 3.30769 11.4328C3.4249 11.3156 3.58387 11.2497 3.74963 11.2497C3.91539 11.2497 4.07436 11.3156 4.19157 11.4328C4.30878 11.55 4.37463 11.709 4.37463 11.8747V15.7747C4.41304 16.2656 4.64302 16.7217 5.0149 17.0445C5.38678 17.3672 5.8707 17.5308 6.36213 17.4997H13.6371C14.1286 17.5308 14.6125 17.3672 14.9844 17.0445C15.3562 16.7217 15.5862 16.2656 15.6246 15.7747V11.8747C15.6246 11.709 15.6905 11.55 15.8077 11.4328C15.9249 11.3156 16.0839 11.2497 16.2496 11.2497C16.4154 11.2497 16.5744 11.3156 16.6916 11.4328C16.8088 11.55 16.8746 11.709 16.8746 11.8747V15.7747C16.8357 16.5971 16.4738 17.3708 15.8676 17.9279C15.2614 18.4849 14.4598 18.7803 13.6371 18.7497ZM18.5684 10.4435C18.627 10.3854 18.6735 10.3162 18.7052 10.2401C18.7369 10.1639 18.7533 10.0822 18.7533 9.99972C18.7533 9.91721 18.7369 9.83552 18.7052 9.75936C18.6735 9.6832 18.627 9.61407 18.5684 9.55597L10.4434 1.43097C10.3853 1.37239 10.3161 1.32589 10.24 1.29416C10.1638 1.26243 10.0821 1.24609 9.99963 1.24609C9.91712 1.24609 9.83543 1.26243 9.75927 1.29416C9.6831 1.32589 9.61398 1.37239 9.55588 1.43097L1.43088 9.55597C1.31319 9.67366 1.24707 9.83328 1.24707 9.99972C1.24707 10.1662 1.31319 10.3258 1.43088 10.4435C1.54857 10.5612 1.70819 10.6273 1.87463 10.6273C2.04107 10.6273 2.20069 10.5612 2.31838 10.4435L9.99963 2.75597L17.6809 10.4435C17.739 10.502 17.8081 10.5485 17.8843 10.5803C17.9604 10.612 18.0421 10.6283 18.1246 10.6283C18.2071 10.6283 18.2888 10.612 18.365 10.5803C18.4411 10.5485 18.5103 10.502 18.5684 10.4435Z" fill="#1A202C"/>
<path d="M5 9.62132C5 9.2235 5.15804 8.84196 5.43934 8.56066L8.93934 5.06066C9.52513 4.47487 10.4749 4.47487 11.0607 5.06066L14.5607 8.56066C14.842 8.84197 15 9.2235 15 9.62132V15.5C15 16.3284 14.3284 17 13.5 17H6.5C5.67157 17 5 16.3284 5 15.5V9.62132Z" fill="#4CD080"/>
</svg>
