<svg width="20" height="20" viewBox="0 0 20 20" fill="none" xmlns="http://www.w3.org/2000/svg">
<circle cx="9" cy="10" r="5" fill="#DC3C22"/>
<path d="M8.91732 18.3337C4.41732 18.3337 0.833984 14.5837 0.833984 10.0003C0.833984 5.41699 4.41732 1.66699 8.91732 1.66699C10.334 1.66699 11.7507 2.08366 12.9173 2.75033C13.334 3.00033 13.4173 3.50033 13.1673 3.91699C12.9173 4.33366 12.4173 4.41699 12.0007 4.16699C11.084 3.66699 10.0007 3.33366 8.91732 3.33366C5.33398 3.33366 2.50065 6.33366 2.50065 10.0003C2.50065 13.667 5.33398 16.667 8.91732 16.667C10.0007 16.667 11.1673 16.3337 12.084 15.7503C12.5007 15.5003 13.0007 15.667 13.2507 16.0003C13.5007 16.417 13.334 16.917 13.0007 17.167C11.6673 17.917 10.334 18.3337 8.91732 18.3337ZM15.0007 14.167C14.7507 14.167 14.584 14.0837 14.4173 13.917C14.084 13.5837 14.084 13.0837 14.4173 12.7503L16.334 10.8337H7.50065C7.00065 10.8337 6.66732 10.5003 6.66732 10.0003C6.66732 9.50033 7.00065 9.16699 7.50065 9.16699H16.334L14.4173 7.25033C14.084 6.91699 14.084 6.41699 14.4173 6.08366C14.7507 5.75033 15.2507 5.75033 15.584 6.08366L18.9173 9.41699C19.0007 9.50033 19.084 9.58366 19.084 9.66699C19.084 9.75033 19.1673 9.83366 19.1673 10.0003C19.1673 10.0837 19.1673 10.2503 19.084 10.3337C19.084 10.417 19.0007 10.5003 18.9173 10.5837L15.584 13.917C15.4173 14.0837 15.2507 14.167 15.0007 14.167Z" fill="#1A202C"/>
</svg>
