<svg width="20" height="20" viewBox="0 0 20 20" fill="none" xmlns="http://www.w3.org/2000/svg">
<rect x="3.55371" y="4.5" width="12.1917" height="11" rx="2" fill="#4CD080"/>
<path fill-rule="evenodd" clip-rule="evenodd" d="M5.20898 7.5C5.20898 7.15483 5.48881 6.875 5.83398 6.875H10.834C11.1792 6.875 11.459 7.15483 11.459 7.5C11.459 7.84517 11.1792 8.125 10.834 8.125H5.83398C5.48881 8.125 5.20898 7.84517 5.20898 7.5Z" fill="#1A202C"/>
<path fill-rule="evenodd" clip-rule="evenodd" d="M15.7672 8.91602C15.468 8.91602 15.2048 9.03202 15.015 9.22702L15.0037 9.23827C14.7821 9.45468 14.6582 9.76277 14.6894 10.0901L14.6901 10.0974C14.7342 10.6266 15.2429 11.0827 15.8672 11.0827H17.4862C17.6209 11.0739 17.7088 10.9686 17.7088 10.8577V9.14102C17.7088 9.03002 17.6209 8.92468 17.4862 8.91602H15.7672ZM14.1249 8.34927C14.5513 7.91447 15.1358 7.66602 15.7672 7.66602H17.5005C17.508 7.66602 17.5154 7.66614 17.5228 7.66641C18.317 7.69477 18.9588 8.33743 18.9588 9.14102V10.8577C18.9588 11.6613 18.317 12.3039 17.5228 12.3323C17.5154 12.3325 17.508 12.3327 17.5005 12.3327H15.8672C14.6926 12.3327 13.5525 11.4738 13.4447 10.2049C13.3774 9.48643 13.6509 8.81518 14.1249 8.34927Z" fill="#1A202C"/>
<path fill-rule="evenodd" clip-rule="evenodd" d="M5.83366 3.54102C5.63012 3.54102 5.43698 3.55555 5.2537 3.58375L5.23648 3.58615C4.31371 3.70195 3.58832 4.09702 3.09162 4.67977C2.59363 5.26402 2.29199 6.07674 2.29199 7.08268V12.916C2.29199 14.024 2.65858 14.8988 3.25477 15.4949C3.85095 16.0911 4.72569 16.4577 5.83366 16.4577H13.3337C14.4417 16.4577 15.3164 16.0911 15.9126 15.4949C16.5087 14.8988 16.8753 14.024 16.8753 12.916V12.3327H15.867C14.6923 12.3327 13.5522 11.4738 13.4445 10.2049C13.3772 9.48643 13.6507 8.81518 14.1247 8.34935C14.5511 7.91447 15.1356 7.66602 15.767 7.66602H16.8753V7.08268C16.8753 6.06993 16.5684 5.25215 16.0626 4.66601C15.5579 4.0812 14.8212 3.68719 13.8865 3.57849C13.8762 3.5773 13.8661 3.57586 13.8559 3.57417C13.706 3.54918 13.5375 3.54102 13.3337 3.54102H5.83366ZM5.07227 2.34696C5.3196 2.30938 5.57357 2.29102 5.83366 2.29102H13.3337C13.5584 2.29102 13.801 2.29914 14.0457 2.33861C15.2545 2.48247 16.2832 3.00843 17.0089 3.84935C17.7364 4.69237 18.1253 5.8121 18.1253 7.08268V8.29102C18.1253 8.63618 17.8455 8.91602 17.5003 8.91602H15.767C15.4677 8.91602 15.2046 9.03202 15.0147 9.22702L15.0036 9.23827C14.7818 9.45468 14.658 9.76285 14.6892 10.0901L14.6899 10.0974C14.734 10.6266 15.2427 11.0827 15.867 11.0827H17.5003C17.8455 11.0827 18.1253 11.3625 18.1253 11.7077V12.916C18.1253 14.308 17.6586 15.5166 16.7964 16.3788C15.9342 17.2409 14.7257 17.7077 13.3337 17.7077H5.83366C4.44163 17.7077 3.23303 17.2409 2.37088 16.3788C1.50873 15.5166 1.04199 14.308 1.04199 12.916V7.08268C1.04199 5.82196 1.42368 4.70967 2.14029 3.86892C2.85647 3.02867 3.87376 2.49927 5.07227 2.34696Z" fill="#1A202C"/>
</svg>
