<svg width="20" height="20" viewBox="0 0 20 20" fill="none" xmlns="http://www.w3.org/2000/svg">
<path d="M16.6661 10.9755V7.49967C16.6661 5.73156 15.9637 4.03587 14.7135 2.78563C13.4632 1.53539 11.7675 0.833008 9.99942 0.833008C8.23131 0.833008 6.53561 1.53539 5.28537 2.78563C4.03513 4.03587 3.33275 5.73156 3.33275 7.49967V10.9738C2.98407 11.0939 2.6682 11.2936 2.41025 11.5572C2.17259 11.7875 1.98411 12.0636 1.8562 12.3688C1.72829 12.6741 1.66362 13.0021 1.66608 13.333C1.66608 13.996 1.92948 14.6319 2.39832 15.1008C2.86716 15.5696 3.50304 15.833 4.16608 15.833H5.91608C6.10735 16.7749 6.61836 17.6217 7.36254 18.23C8.10671 18.8382 9.03829 19.1705 9.99942 19.1705C10.9605 19.1705 11.8921 18.8382 12.6363 18.23C13.3805 17.6217 13.8915 16.7749 14.0828 15.833H15.8328C16.4948 15.8297 17.1288 15.5653 17.5969 15.0971C18.065 14.629 18.3295 13.995 18.3328 13.333C18.3321 12.8161 18.1716 12.3121 17.8732 11.89C17.5748 11.4679 17.1532 11.1485 16.6661 10.9755ZM9.99942 17.4997C9.48252 17.499 8.97848 17.3385 8.55641 17.0401C8.13433 16.7417 7.8149 16.3201 7.64192 15.833H12.3569C12.1839 16.3201 11.8645 16.7417 11.4424 17.0401C11.0204 17.3385 10.5163 17.499 9.99942 17.4997ZM16.4103 13.9272C16.335 14.0038 16.2451 14.0645 16.1459 14.1056C16.0466 14.1467 15.9401 14.1673 15.8328 14.1663H4.16608C3.94507 14.1663 3.73311 14.0785 3.57683 13.9223C3.42055 13.766 3.33275 13.554 3.33275 13.333C3.33253 13.2217 3.35512 13.1116 3.39912 13.0094C3.44312 12.9072 3.5076 12.8151 3.58858 12.7388C3.66383 12.6622 3.75376 12.6015 3.85298 12.5605C3.9522 12.5194 4.05869 12.4987 4.16608 12.4997C4.3871 12.4997 4.59906 12.4119 4.75534 12.2556C4.91162 12.0993 4.99942 11.8874 4.99942 11.6663V7.49967C4.99942 6.84307 5.12875 6.19289 5.38002 5.58626C5.63129 4.97963 5.99959 4.42843 6.46388 3.96414C6.92818 3.49985 7.47937 3.13155 8.086 2.88028C8.69263 2.629 9.34281 2.49967 9.99942 2.49967C10.656 2.49967 11.3062 2.629 11.9128 2.88028C12.5195 3.13155 13.0707 3.49985 13.535 3.96414C13.9992 4.42843 14.3675 4.97963 14.6188 5.58626C14.8701 6.19289 14.9994 6.84307 14.9994 7.49967V11.6663C14.9994 11.8874 15.0872 12.0993 15.2435 12.2556C15.3998 12.4119 15.6117 12.4997 15.8328 12.4997C16.0538 12.4997 16.2657 12.5875 16.422 12.7438C16.5783 12.9 16.6661 13.112 16.6661 13.333C16.6663 13.4443 16.6437 13.5544 16.5997 13.6566C16.5557 13.7588 16.4912 13.8509 16.4103 13.9272Z" fill="#1A202C"/>
<path d="M6 8C6 5.79086 7.79086 4 10 4C12.2091 4 14 5.79086 14 8V13H6V8Z" fill="#4CD080"/>
</svg>
