<svg width="20" height="20" viewBox="0 0 20 20" fill="none" xmlns="http://www.w3.org/2000/svg">
<rect x="4" y="4" width="12" height="12.5" rx="1" fill="#4CD080"/>
<path fill-rule="evenodd" clip-rule="evenodd" d="M9.30371 4.99944C9.30371 4.6048 8.98407 4.28516 8.58943 4.28516H5.018C4.62335 4.28516 4.30371 4.6048 4.30371 4.99944V8.57087C4.30371 8.96551 4.62335 9.28516 5.018 9.28516H8.58943C8.98407 9.28516 9.30371 8.96551 9.30371 8.57087V4.99944ZM7.87514 5.71373V7.85658H5.73228V5.71373H7.87514Z" fill="#1A202C"/>
<path fill-rule="evenodd" clip-rule="evenodd" d="M6.42871 1.42773H2.143C1.74871 1.42773 1.42871 1.74773 1.42871 2.14202V6.42773C1.42871 6.82202 1.74871 7.14202 2.143 7.14202C2.53728 7.14202 2.85728 6.82202 2.85728 6.42773V2.85631H6.42871C6.823 2.85631 7.143 2.53631 7.143 2.14202C7.143 1.74773 6.823 1.42773 6.42871 1.42773Z" fill="#1A202C"/>
<path fill-rule="evenodd" clip-rule="evenodd" d="M13.5713 2.85631H17.1427V6.42773C17.1427 6.82202 17.4627 7.14202 17.857 7.14202C18.2513 7.14202 18.5713 6.82202 18.5713 6.42773V2.14202C18.5713 1.74773 18.2513 1.42773 17.857 1.42773H13.5713C13.177 1.42773 12.857 1.74773 12.857 2.14202C12.857 2.53631 13.177 2.85631 13.5713 2.85631Z" fill="#1A202C"/>
<path fill-rule="evenodd" clip-rule="evenodd" d="M13.5713 18.5703H17.857C18.2513 18.5703 18.5713 18.2503 18.5713 17.856V13.5703C18.5713 13.176 18.2513 12.856 17.857 12.856C17.4627 12.856 17.1427 13.176 17.1427 13.5703V17.1417H13.5713C13.177 17.1417 12.857 17.4617 12.857 17.856C12.857 18.2503 13.177 18.5703 13.5713 18.5703Z" fill="#1A202C"/>
<path fill-rule="evenodd" clip-rule="evenodd" d="M6.42871 17.1417H2.85728V13.5703C2.85728 13.176 2.53728 12.856 2.143 12.856C1.74871 12.856 1.42871 13.176 1.42871 13.5703V17.856C1.42871 18.2503 1.74871 18.5703 2.143 18.5703H6.42871C6.823 18.5703 7.143 18.2503 7.143 17.856C7.143 17.4617 6.823 17.1417 6.42871 17.1417Z" fill="#1A202C"/>
<path fill-rule="evenodd" clip-rule="evenodd" d="M15.709 4.99944C15.709 4.6048 15.3893 4.28516 14.9947 4.28516H11.4233C11.0286 4.28516 10.709 4.6048 10.709 4.99944V8.57087C10.709 8.96551 11.0286 9.28516 11.4233 9.28516H14.9947C15.3893 9.28516 15.709 8.96551 15.709 8.57087V4.99944ZM14.2804 5.71373V7.85658H12.1376V5.71373H14.2804Z" fill="#1A202C"/>
<path fill-rule="evenodd" clip-rule="evenodd" d="M9.28613 11.4272C9.28613 11.0325 8.96649 10.7129 8.57185 10.7129H5.00042C4.60578 10.7129 4.28613 11.0325 4.28613 11.4272V14.9986C4.28613 15.3932 4.60578 15.7129 5.00042 15.7129H8.57185C8.96649 15.7129 9.28613 15.3932 9.28613 14.9986V11.4272ZM7.85756 12.1415V14.2843H5.7147V12.1415H7.85756Z" fill="#1A202C"/>
<path fill-rule="evenodd" clip-rule="evenodd" d="M11.4287 11.4277H12.8573V12.8563H11.4287V11.4277Z" fill="#1A202C"/>
<path fill-rule="evenodd" clip-rule="evenodd" d="M14.292 14.2852H15.7206V15.7137H14.292V14.2852Z" fill="#1A202C"/>
<path fill-rule="evenodd" clip-rule="evenodd" d="M12.8574 12.8555H14.286V14.284H12.8574V12.8555Z" fill="#1A202C"/>
<path fill-rule="evenodd" clip-rule="evenodd" d="M11.4229 14.2852H12.8514V15.7137H11.4229V14.2852Z" fill="#1A202C"/>
<path fill-rule="evenodd" clip-rule="evenodd" d="M14.2861 11.4277H15.7147V12.8563H14.2861V11.4277Z" fill="#1A202C"/>
</svg>
