<svg width="20" height="20" viewBox="0 0 20 20" fill="none" xmlns="http://www.w3.org/2000/svg">
<path d="M5.92233 4.9375C6.27959 4.3187 6.93985 3.9375 7.65438 3.9375L12.345 3.9375C13.0595 3.9375 13.7198 4.3187 14.077 4.9375L16.4223 8.99968C16.7796 9.61848 16.7796 10.3809 16.4223 10.9997L14.077 15.0619C13.7198 15.6807 13.0595 16.0619 12.345 16.0619L7.65438 16.0619C6.93985 16.0619 6.27959 15.6807 5.92233 15.0619L3.57703 10.9997C3.21976 10.3809 3.21976 9.61848 3.57703 8.99968L5.92233 4.9375Z" fill="#4CD080"/>
<path d="M13.438 18.7434H6.56305C5.6593 18.7434 4.59805 18.1309 4.1468 17.3484L0.709297 11.3959C0.250547 10.6009 0.250547 9.40094 0.709297 8.60531L4.14742 2.65281C4.59867 1.87031 5.65992 1.25781 6.56367 1.25781H13.438C14.3418 1.25781 15.403 1.87031 15.8543 2.65281L19.2918 8.60531C19.7505 9.40031 19.7505 10.6003 19.2918 11.3959L15.8537 17.3484C15.403 18.1309 14.3412 18.7434 13.438 18.7434ZM6.56305 2.50719C6.09742 2.50719 5.4618 2.87406 5.2293 3.27719L1.79117 9.22969C1.55867 9.63281 1.55867 10.3672 1.79117 10.7703L5.22867 16.7228C5.4618 17.1266 6.09742 17.4928 6.56242 17.4928H13.438C13.9037 17.4928 14.5393 17.1259 14.7718 16.7228L18.2099 10.7703C18.4424 10.3672 18.4424 9.63281 18.2099 9.22969L14.7724 3.27719C14.5393 2.87344 13.9037 2.50719 13.4387 2.50719H6.56305ZM10.0005 13.6978C7.96117 13.6978 6.30242 12.0391 6.30242 10.0003C6.30242 7.96156 7.96117 6.30281 10.0005 6.30281C12.0399 6.30281 13.6987 7.96156 13.6987 10.0003C13.6987 12.0391 12.0399 13.6978 10.0005 13.6978ZM10.0005 7.55281C8.65055 7.55281 7.55242 8.65094 7.55242 10.0003C7.55242 11.3497 8.65055 12.4478 10.0005 12.4478C11.3505 12.4478 12.4487 11.3497 12.4487 10.0003C12.4487 8.65094 11.3505 7.55281 10.0005 7.55281Z" fill="#1A202C"/>
</svg>
