<svg width="20" height="20" viewBox="0 0 20 20" fill="none" xmlns="http://www.w3.org/2000/svg">
<path d="M4.5 3.5C4.5 2.94772 4.94772 2.5 5.5 2.5H14.5C15.0523 2.5 15.5 2.94772 15.5 3.5V16.5C15.5 17.0523 15.0523 17.5 14.5 17.5H10C9.44772 17.5 9 17.0523 9 16.5V15C9 13.8954 8.10457 13 7 13H5.5C4.94772 13 4.5 12.5523 4.5 12V3.5Z" fill="#4CD080"/>
<path d="M7.44723 4.74945V8.03226C7.44723 8.37726 7.72723 8.65726 8.07223 8.65726C8.41723 8.65726 8.69723 8.37726 8.69723 8.03226V4.74945L9.28566 5.3382C9.40754 5.46039 9.56754 5.52133 9.72754 5.52133C9.88754 5.52133 10.0472 5.46039 10.1694 5.3382C10.4135 5.09414 10.4135 4.69852 10.1694 4.45445L8.5141 2.79883C8.27973 2.56445 7.86473 2.56445 7.63035 2.79883L5.97504 4.45445C5.73098 4.69852 5.73098 5.09414 5.97504 5.3382C6.2191 5.58227 6.61504 5.58227 6.85879 5.3382L7.44723 4.74945Z" fill="#1A202C"/>
<path d="M13.1421 5.93461L12.5537 6.52305V3.24023C12.5537 2.89523 12.2737 2.61523 11.9287 2.61523C11.5837 2.61523 11.3037 2.89523 11.3037 3.24023V6.52305L10.7152 5.93461C10.4712 5.69055 10.0752 5.69055 9.83148 5.93461C9.58742 6.17867 9.58742 6.5743 9.83148 6.81836L11.4868 8.47367C11.609 8.59586 11.7687 8.6568 11.9287 8.6568C12.0887 8.6568 12.2484 8.59586 12.3705 8.47367L14.0259 6.81836C14.2699 6.5743 14.2699 6.17867 14.0259 5.93461C13.7821 5.69055 13.3862 5.69055 13.1421 5.93461Z" fill="#1A202C"/>
<path d="M15.0469 0.625H4.95312C3.57469 0.625 2.45312 1.74656 2.45312 3.125V13.7781C2.45312 13.9438 2.51906 14.1028 2.63625 14.22L7.60813 19.1919C7.72531 19.3091 7.88437 19.375 8.05 19.375H15.0469C16.4253 19.375 17.5469 18.2534 17.5469 16.875V3.125C17.5469 1.74656 16.4253 0.625 15.0469 0.625ZM7.425 17.2409L4.58688 14.4028H6.175C6.86437 14.4028 7.425 14.9634 7.425 15.6528V17.2409ZM16.2969 16.875C16.2969 17.5644 15.7363 18.125 15.0469 18.125H8.675V15.6531C8.675 14.2747 7.55344 13.1531 6.175 13.1531H3.70313V3.125C3.70313 2.43562 4.26375 1.875 4.95312 1.875H15.0469C15.7363 1.875 16.2969 2.43562 16.2969 3.125V16.875Z" fill="#1A202C"/>
<path d="M12.8038 9.375H7.19629C6.85129 9.375 6.57129 9.655 6.57129 10C6.57129 10.345 6.85129 10.625 7.19629 10.625H12.8038C13.1488 10.625 13.4288 10.345 13.4288 10C13.4288 9.655 13.1488 9.375 12.8038 9.375Z" fill="#1A202C"/>
<path d="M12.8038 11.6152H7.19629C6.85129 11.6152 6.57129 11.8952 6.57129 12.2402C6.57129 12.5852 6.85129 12.8652 7.19629 12.8652H12.8038C13.1488 12.8652 13.4288 12.5852 13.4288 12.2402C13.4288 11.8952 13.1488 11.6152 12.8038 11.6152Z" fill="#1A202C"/>
<path d="M12.8038 13.8535H10C9.655 13.8535 9.375 14.1335 9.375 14.4785C9.375 14.8235 9.655 15.1035 10 15.1035H12.8038C13.1488 15.1035 13.4288 14.8235 13.4288 14.4785C13.4288 14.1335 13.1488 13.8535 12.8038 13.8535Z" fill="#1A202C"/>
</svg>
