<svg width="20" height="20" viewBox="0 0 20 20" fill="none" xmlns="http://www.w3.org/2000/svg">
<path d="M6 7.5C6 7.22386 6.22386 7 6.5 7H13.5C13.7761 7 14 7.22386 14 7.5V16C14 16.2761 13.7761 16.5 13.5 16.5H6.5C6.22386 16.5 6 16.2761 6 16V7.5Z" fill="#4CD080"/>
<path d="M15.0003 5.83333H15.6253C15.6253 5.66757 15.5595 5.5086 15.4422 5.39139C15.3251 5.27418 15.1661 5.20833 15.0003 5.20833V5.83333ZM5.00033 5.83333V5.20833C4.83457 5.20833 4.67559 5.27418 4.55838 5.39139C4.44118 5.5086 4.37533 5.66757 4.37533 5.83333H5.00033ZM14.3753 5.83333V9.16667H15.6253V5.83333H14.3753ZM14.3753 9.16667V15.8333H15.6253V9.16667H14.3753ZM13.3337 16.875H6.66699V18.125H13.3337V16.875ZM5.62533 15.8333V5.83333H4.37533V15.8333H5.62533ZM5.00033 6.45833H15.0003V5.20833H5.00033V6.45833ZM5.00033 3.125H15.0003V1.875H5.00033V3.125ZM2.29199 5.83333C2.29199 4.33757 3.50455 3.125 5.00033 3.125V1.875C2.8142 1.875 1.04199 3.64721 1.04199 5.83333H2.29199ZM5.00033 8.54167C3.50455 8.54167 2.29199 7.32911 2.29199 5.83333H1.04199C1.04199 8.01946 2.8142 9.79167 5.00033 9.79167V8.54167ZM17.7087 5.83333C17.7087 7.32911 16.4961 8.54167 15.0003 8.54167V9.79167C17.1865 9.79167 18.9587 8.01946 18.9587 5.83333H17.7087ZM18.9587 5.83333C18.9587 3.64721 17.1865 1.875 15.0003 1.875V3.125C16.4961 3.125 17.7087 4.33757 17.7087 5.83333H18.9587ZM14.3753 15.8333C14.3753 16.4087 13.909 16.875 13.3337 16.875V18.125C14.5993 18.125 15.6253 17.099 15.6253 15.8333H14.3753ZM6.66699 16.875C6.09169 16.875 5.62533 16.4087 5.62533 15.8333H4.37533C4.37533 17.099 5.40134 18.125 6.66699 18.125V16.875Z" fill="#1A202C"/>
<path d="M12.1092 12.9413C12.3533 12.6972 12.3533 12.3015 12.1092 12.0574C11.8651 11.8133 11.4695 11.8133 11.2254 12.0574L12.1092 12.9413ZM8.7759 12.0574C8.53182 11.8133 8.13612 11.8133 7.89204 12.0574C7.64797 12.3015 7.64797 12.6972 7.89204 12.9413L8.7759 12.0574ZM10.6256 9.16602C10.6256 8.82085 10.3458 8.54102 10.0006 8.54102C9.65548 8.54102 9.37565 8.82085 9.37565 9.16602H10.6256ZM9.37565 13.3327C9.37565 13.6778 9.65548 13.9577 10.0006 13.9577C10.3458 13.9577 10.6256 13.6778 10.6256 13.3327H9.37565ZM11.2254 12.0574L10.148 13.1348L11.0318 14.0187L12.1092 12.9413L11.2254 12.0574ZM9.85332 13.1348L8.7759 12.0574L7.89204 12.9413L8.96948 14.0187L9.85332 13.1348ZM10.148 13.1348C10.0666 13.2162 9.93473 13.2162 9.85332 13.1348L8.96948 14.0187C9.53898 14.5882 10.4623 14.5882 11.0318 14.0187L10.148 13.1348ZM9.37565 9.16602V13.3327H10.6256V9.16602H9.37565Z" fill="#1A202C"/>
</svg>
