<svg width="24" height="24" viewBox="0 0 24 24" fill="none" xmlns="http://www.w3.org/2000/svg">
<path d="M13.47 8.53082C13.3375 8.38865 13.2654 8.2006 13.2688 8.0063C13.2723 7.812 13.351 7.62661 13.4884 7.4892C13.6258 7.35179 13.8112 7.27308 14.0055 7.26965C14.1998 7.26622 14.3878 7.33834 14.53 7.47082L18.53 11.4708C18.6705 11.6114 18.7493 11.8021 18.7493 12.0008C18.7493 12.1996 18.6705 12.3902 18.53 12.5308L14.53 16.5308C14.4613 16.6045 14.3785 16.6636 14.2865 16.7046C14.1945 16.7456 14.0952 16.7676 13.9945 16.7694C13.8938 16.7712 13.7938 16.7527 13.7004 16.7149C13.607 16.6772 13.5222 16.6211 13.451 16.5499C13.3797 16.4786 13.3236 16.3938 13.2859 16.3004C13.2482 16.207 13.2296 16.107 13.2314 16.0063C13.2332 15.9056 13.2552 15.8063 13.2962 15.7143C13.3372 15.6223 13.3963 15.5395 13.47 15.4708L16.19 12.7508H6.5C6.30109 12.7508 6.11032 12.6718 5.96967 12.5312C5.82902 12.3905 5.75 12.1997 5.75 12.0008C5.75 11.8019 5.82902 11.6111 5.96967 11.4705C6.11032 11.3298 6.30109 11.2508 6.5 11.2508H16.19L13.47 8.53082Z" fill="#1A202C" fill-opacity="0.6"/>
</svg>
