<svg width="20" height="20" viewBox="0 0 20 20" fill="none" xmlns="http://www.w3.org/2000/svg">
<path d="M5.41732 10.0007C5.19637 10.0004 4.98454 9.91256 4.82831 9.75633C4.67207 9.6001 4.5842 9.38826 4.58398 9.16732V6.25065C4.58398 4.81406 5.15467 3.43631 6.17049 2.42049C7.18631 1.40467 8.56406 0.833984 10.0007 0.833984C11.4372 0.833984 12.815 1.40467 13.8308 2.42049C14.8466 3.43631 15.4173 4.81406 15.4173 6.25065V9.16732C15.4171 9.38826 15.3292 9.6001 15.173 9.75633C15.0168 9.91256 14.8049 10.0004 14.584 10.0007H5.41732ZM13.7507 8.33398V6.25065C13.7507 5.25609 13.3556 4.30226 12.6523 3.599C11.949 2.89574 10.9952 2.50065 10.0007 2.50065C9.00609 2.50065 8.05226 2.89574 7.349 3.599C6.64574 4.30226 6.25065 5.25609 6.25065 6.25065V8.33398H13.7507Z" fill="#FFC416"/>
<path d="M15.0007 7.70898H5.00065C4.39305 7.7096 3.81052 7.95124 3.38088 8.38088C2.95124 8.81052 2.7096 9.39305 2.70898 10.0007V16.6673C2.7096 17.2749 2.95124 17.8575 3.38088 18.2871C3.81052 18.7167 4.39305 18.9584 5.00065 18.959H15.0007C15.6082 18.9584 16.1908 18.7167 16.6204 18.2871C17.0501 17.8575 17.2917 17.2749 17.2923 16.6673V10.0007C17.2917 9.39305 17.0501 8.81052 16.6204 8.38088C16.1908 7.95124 15.6082 7.7096 15.0007 7.70898ZM10.6257 13.334C10.6257 13.4997 10.5598 13.6587 10.4426 13.7759C10.3254 13.8931 10.1664 13.959 10.0007 13.959C9.83489 13.959 9.67592 13.8931 9.55871 13.7759C9.4415 13.6587 9.37565 13.4997 9.37565 13.334V12.5007C9.37565 12.3349 9.4415 12.1759 9.55871 12.0587C9.67592 11.9415 9.83489 11.8757 10.0007 11.8757C10.1664 11.8757 10.3254 11.9415 10.4426 12.0587C10.5598 12.1759 10.6257 12.3349 10.6257 12.5007V13.334Z" fill="#FFC416"/>
</svg>
