<svg width="20" height="20" viewBox="0 0 20 20" fill="none" xmlns="http://www.w3.org/2000/svg">
<path d="M10 0.833008L2.5 4.16634V9.16634C2.5 13.7913 5.7 18.1163 10 19.1663C14.3 18.1163 17.5 13.7913 17.5 9.16634V4.16634L10 0.833008ZM10 5.83301C11.1667 5.83301 12.3333 6.74967 12.3333 7.91634V9.16634C12.8333 9.16634 13.3333 9.66634 13.3333 10.2497V13.1663C13.3333 13.6663 12.8333 14.1663 12.25 14.1663H7.66667C7.16667 14.1663 6.66667 13.6663 6.66667 13.083V10.1663C6.66667 9.66634 7.16667 9.16634 7.66667 9.16634V7.91634C7.66667 6.74967 8.83333 5.83301 10 5.83301ZM10 6.83301C9.33333 6.83301 8.75 7.24967 8.75 7.91634V9.16634H11.25V7.91634C11.25 7.24967 10.6667 6.83301 10 6.83301Z" fill="#C403E2"/>
</svg>
