<svg width="32" height="32" viewBox="0 0 32 32" fill="none" xmlns="http://www.w3.org/2000/svg">
<rect width="32" height="32" rx="16" fill="#14AE6F" fill-opacity="0.1"/>
<rect x="3" y="3" width="26" height="26" rx="13" fill="#14AE6F" fill-opacity="0.1"/>
<g clip-path="url(#clip0_282_3986)">
<path d="M16 6C10.4858 6 6 10.4858 6 16C6 21.5142 10.4858 26 16 26C21.5142 26 26 21.5142 26 16C26 10.4858 21.5142 6 16 6Z" fill="#14AE6F"/>
<path d="M21.0682 13.8807L15.6515 19.2973C15.489 19.4598 15.2757 19.5416 15.0624 19.5416C14.8491 19.5416 14.6357 19.4598 14.4732 19.2973L11.765 16.589C11.439 16.2632 11.439 15.7365 11.765 15.4107C12.0907 15.0848 12.6173 15.0848 12.9432 15.4107L15.0624 17.5299L19.89 12.7025C20.2157 12.3765 20.7423 12.3765 21.0682 12.7025C21.394 13.0282 21.394 13.5548 21.0682 13.8807Z" fill="#FAFAFA"/>
</g>
<defs>
<clipPath id="clip0_282_3986">
<rect width="20" height="20" fill="white" transform="translate(6 6)"/>
</clipPath>
</defs>
</svg>
