<svg width="20" height="20" viewBox="0 0 20 20" fill="none" xmlns="http://www.w3.org/2000/svg">
<path d="M18.75 3.125H1.25C0.56125 3.125 0 3.68625 0 4.375V15.625C0 16.3137 0.56125 16.875 1.25 16.875H18.75C19.4387 16.875 20 16.3137 20 15.625V4.375C20 3.68625 19.4387 3.125 18.75 3.125ZM18.75 16.25V15.625H1.25V4.375H18.75V15.625C18.75 15.625 18.75 15.625 18.7513 15.625L18.75 16.25Z" fill="#1A202C"/>
<path d="M9.375 13.125H3.125C2.78 13.125 2.5 13.405 2.5 13.75C2.5 14.095 2.78 14.375 3.125 14.375H9.375C9.72 14.375 10 14.095 10 13.75C10 13.405 9.72 13.125 9.375 13.125Z" fill="#1A202C"/>
<path d="M16.875 13.125H14.375C14.03 13.125 13.75 13.405 13.75 13.75C13.75 14.095 14.03 14.375 14.375 14.375H16.875C17.22 14.375 17.5 14.095 17.5 13.75C17.5 13.405 17.22 13.125 16.875 13.125Z" fill="#1A202C"/>
<path d="M6.875 5.625H3.125C2.78 5.625 2.5 5.905 2.5 6.25V10C2.5 10.345 2.78 10.625 3.125 10.625H6.875C7.22 10.625 7.5 10.345 7.5 10V6.25C7.5 5.905 7.22 5.625 6.875 5.625ZM6.25 9.375H3.75V6.875H6.25V9.375Z" fill="#1A202C"/>
</svg>
