<svg width="20" height="20" viewBox="0 0 20 20" fill="none" xmlns="http://www.w3.org/2000/svg">
<path d="M18.75 4.99917H17.3263L16.2188 1.67667C16.1125 1.36042 15.7775 1.18417 15.4537 1.27292L2.41125 4.99917H1.25C0.56 4.99917 0 5.56042 0 6.24917V17.4992C0 18.1879 0.56 18.7492 1.25 18.7492H18.75C19.44 18.7492 20 18.1879 20 17.4992V6.24917C20 5.56042 19.44 4.99917 18.75 4.99917ZM15.2213 2.63917L16.0075 4.99917H6.96375L15.2213 2.63917ZM1.25 6.24917H18.75V8.74917H1.25V6.24917ZM18.75 18.1242V17.4992H1.25V9.99917H18.75V17.4992H18.7513L18.75 18.1242Z" fill="#1A202C"/>
<path d="M16.875 12.5H3.125C2.78 12.5 2.5 12.78 2.5 13.125V15.625C2.5 15.97 2.78 16.25 3.125 16.25H16.875C17.22 16.25 17.5 15.97 17.5 15.625V13.125C17.5 12.78 17.22 12.5 16.875 12.5ZM16.25 15H3.75V13.75H16.25V15Z" fill="#1A202C"/>
</svg>
