<svg width="20" height="20" viewBox="0 0 20 20" fill="none" xmlns="http://www.w3.org/2000/svg">
<g clip-path="url(#clip0_342_644)">
<path d="M19.3333 8.66699C19.7013 8.66699 20 8.36833 20 8.00033V6.66699C20 6.42833 19.872 6.20699 19.664 6.08833L10.3307 0.754992C10.1253 0.637659 9.87467 0.637659 9.66933 0.754992L0.336 6.08833C0.128 6.20699 0 6.42833 0 6.66699V8.00033C0 8.36833 0.298667 8.66699 0.666667 8.66699H1.33333V15.3337C0.597333 15.3337 0 15.9323 0 16.667V18.667C0 19.035 0.298667 19.3337 0.666667 19.3337H19.3333C19.7013 19.3337 20 19.035 20 18.667V16.667C20 15.9323 19.4027 15.3337 18.6667 15.3337V8.66699H19.3333ZM18.6667 18.0003H1.33333V16.667H18.6667V18.0003ZM2.66667 15.3337V8.66699H4V15.3337H2.66667ZM5.33333 15.3337V8.66699H8V15.3337H5.33333ZM9.33333 15.3337V8.66699H10.6667V15.3337H9.33333ZM12 15.3337V8.66699H14.6667V15.3337H12ZM16 15.3337V8.66699H17.3333V15.3337H16ZM1.33333 7.33366V7.05366L10 2.10166L18.6667 7.05366V7.33366H1.33333Z" fill="#1A202C"/>
</g>
<defs>
<clipPath id="clip0_342_644">
<rect width="20" height="20" fill="white"/>
</clipPath>
</defs>
</svg>
