<?xml version="1.0" encoding="iso-8859-1"?>
<!-- Generator: Adobe Illustrator 19.0.0, SVG Export Plug-In . SVG Version: 6.00 Build 0)  -->
<svg version="1.1" id="Capa_1" xmlns="http://www.w3.org/2000/svg" xmlns:xlink="http://www.w3.org/1999/xlink" x="0px" y="0px"
	 viewBox="0 0 511.983 511.983" style="enable-background:new 0 0 511.983 511.983;" xml:space="preserve">
<g>
	<g>
		<path d="M510.303,288.954l-96-192c-3.968-7.904-13.536-11.072-21.472-7.168l-64,32c-3.84,1.92-6.72,5.28-8.064,9.344
			c-1.344,4.064-0.96,8.512,1.024,12.32l4.48,8.672h-38.272c-4.256,0-8.32,1.696-11.328,4.672l-14.912,14.944l-29.664-17.408
			c-2.432-1.44-5.248-2.208-8.096-2.208h-38.272l4.48-8.64c1.952-3.808,2.336-8.256,1.024-12.32
			c-1.344-4.064-4.256-7.424-8.064-9.344l-64-32c-7.904-3.936-17.536-0.768-21.472,7.136l-96,192
			c-3.904,7.776-0.832,17.248,6.848,21.312l60.672,32c2.304,1.216,4.864,1.856,7.456,1.856c1.6,0,3.232-0.256,4.768-0.736
			c4.064-1.28,7.456-4.128,9.44-7.904l5.152-9.952l111.744,82.688c14.176,10.432,31.072,15.648,47.936,15.648
			c17.12,0,34.24-5.376,48.416-16.192l110.432-84.8l6.528,12.608c1.984,3.776,5.344,6.624,9.44,7.904
			c1.568,0.48,3.2,0.736,4.8,0.736c2.592,0,5.152-0.64,7.456-1.856l60.672-32C511.135,306.202,514.175,296.73,510.303,288.954z
			 M69.887,306.458l-32.576-17.184l81.856-163.68l35.168,17.6l-9.568,18.464c-0.064,0.128-0.128,0.224-0.192,0.352L69.887,306.458z
			 M284.735,382.266c-16.832,12.8-40.672,12.928-57.92,0.192L110.943,296.73l58.24-112.608h50.464l18.72,11.008l-57.696,57.664
			c-5.824,5.856-6.272,15.2-0.992,21.536l12.512,15.072c14.528,17.472,39.456,22.432,59.072,11.968l34.944-18.24l62.752,49.824
			L284.735,382.266z M375.103,312.858l-77.152-61.28c-4.96-3.904-11.744-4.544-17.344-1.632l-44.32,23.104
			c-6.304,3.392-14.72,1.6-19.488-4.096l-3.168-3.84l80.992-80.992h48.192l56.832,109.888L375.103,312.858z M442.111,306.458
			l-74.72-144.448c-0.064-0.128-0.128-0.224-0.192-0.352l-9.568-18.464l35.2-17.6l81.856,163.68L442.111,306.458z"/>
	</g>
</g>
<g>
</g>
<g>
</g>
<g>
</g>
<g>
</g>
<g>
</g>
<g>
</g>
<g>
</g>
<g>
</g>
<g>
</g>
<g>
</g>
<g>
</g>
<g>
</g>
<g>
</g>
<g>
</g>
<g>
</g>
</svg>
