<?xml version="1.0" encoding="iso-8859-1"?>
<!-- Generator: Adobe Illustrator 19.0.0, SVG Export Plug-In . SVG Version: 6.00 Build 0)  -->
<svg version="1.1" id="Capa_1" xmlns="http://www.w3.org/2000/svg" xmlns:xlink="http://www.w3.org/1999/xlink" x="0px" y="0px"
	 viewBox="0 0 512 512" style="enable-background:new 0 0 512 512;" xml:space="preserve">
<g>
	<g>
		<path d="M416,64h-64V48c0-8.832-7.168-16-16-16h-34.752C294.656,13.376,276.864,0,256,0s-38.656,13.376-45.248,32H176
			c-8.832,0-16,7.168-16,16v16H96c-17.952,0-32,14.048-32,32v384c0,17.952,14.048,32,32,32h320c17.952,0,32-14.048,32-32V96
			C448,78.048,433.952,64,416,64z M192,64h32c8.832,0,16-7.168,16-16c0-8.832,7.2-16,16-16s16,7.168,16,16c0,8.832,7.168,16,16,16
			h32v32H192V64z M416,480H96V96h64v16c0,8.832,7.168,16,16,16h160c8.832,0,16-7.168,16-16V96h64V480z"/>
	</g>
</g>
<g>
	<g>
		<path d="M272,416H144c-8.832,0-16,7.168-16,16c0,8.832,7.168,16,16,16h128c8.832,0,16-7.168,16-16
			C288,423.168,280.832,416,272,416z"/>
	</g>
</g>
<g>
	<g>
		<path d="M368,352H144c-8.832,0-16,7.168-16,16c0,8.832,7.168,16,16,16h224c8.832,0,16-7.168,16-16
			C384,359.168,376.832,352,368,352z"/>
	</g>
</g>
<g>
	<g>
		<path d="M256,160c-44.128,0-80,35.904-80,80s35.872,80,80,80s80-35.904,80-80S300.128,160,256,160z M256,288
			c-26.464,0-48-21.536-48-48c0-20.832,13.408-38.432,32-45.056V240c0,8.832,7.168,16,16,16h45.056
			C294.432,274.592,276.832,288,256,288z M272,224v-29.056c13.568,4.832,24.224,15.488,29.056,29.056H272z"/>
	</g>
</g>
<g>
</g>
<g>
</g>
<g>
</g>
<g>
</g>
<g>
</g>
<g>
</g>
<g>
</g>
<g>
</g>
<g>
</g>
<g>
</g>
<g>
</g>
<g>
</g>
<g>
</g>
<g>
</g>
<g>
</g>
</svg>
