<svg width="20" height="20" viewBox="0 0 20 20" fill="none" xmlns="http://www.w3.org/2000/svg">
<path d="M13.7054 17.2677L11.2053 11.0175C11.1115 10.78 10.8803 10.625 10.6253 10.625H3.12508C2.87007 10.625 2.63882 10.78 2.54506 11.0175L0.0449951 17.2677C-0.0325071 17.4602 -0.00875641 17.6777 0.107497 17.8502C0.22375 18.0227 0.417505 18.1252 0.625011 18.1252H13.1254C13.3329 18.1252 13.5266 18.0227 13.6429 17.8502C13.7591 17.6777 13.7816 17.4602 13.7054 17.2677ZM1.54754 16.8752L3.54884 11.875H10.2015L12.2028 16.8752H1.54754Z" fill="#1A202C"/>
<path d="M19.9552 17.2677L17.4551 11.0175C17.3614 10.78 17.1301 10.625 16.8751 10.625H13.125C12.78 10.625 12.5 10.905 12.5 11.25C12.5 11.595 12.78 11.875 13.125 11.875H16.4514L18.4527 16.8752H15.6251C15.2801 16.8752 15.0001 17.1552 15.0001 17.5002C15.0001 17.8452 15.2801 18.1252 15.6251 18.1252H19.3752C19.5827 18.1252 19.7764 18.0227 19.8927 17.8502C20.009 17.6777 20.0315 17.4602 19.9552 17.2677Z" fill="#1A202C"/>
<path d="M16.8298 8.51768L14.3298 2.26751C14.236 2.03 14.0047 1.875 13.7497 1.875H6.24954C5.99453 1.875 5.76327 2.03 5.66952 2.26751L3.16945 8.51768C3.0932 8.71144 3.1157 8.92894 3.23195 9.1002C3.34821 9.27145 3.54196 9.37521 3.74947 9.37521H16.2498C16.4573 9.37521 16.6511 9.2727 16.7673 9.1002C16.8836 8.92769 16.9061 8.71019 16.8298 8.51768ZM4.67199 8.12517L6.6733 3.12503H13.326L15.3273 8.12517H4.67199Z" fill="#1A202C"/>
<path d="M10.6258 4.375H8.12577C7.85702 4.375 7.61826 4.5475 7.53201 4.80251L6.90699 6.67756C6.79824 7.00507 6.97574 7.35883 7.30325 7.46883C7.3695 7.49009 7.43451 7.50009 7.50076 7.50009C7.76201 7.50009 8.00577 7.33383 8.09452 7.07257L8.57579 5.62503H10.6258C10.9709 5.62503 11.2509 5.34503 11.2509 5.00002C11.2509 4.65501 10.9709 4.375 10.6258 4.375Z" fill="#1A202C"/>
<path d="M7.50085 13.125H5.00078C4.73203 13.125 4.49327 13.2975 4.40702 13.5525L3.782 15.4276C3.67325 15.7551 3.85075 16.1088 4.17701 16.2188C4.24451 16.2401 4.30952 16.2501 4.37577 16.2501C4.63702 16.2501 4.88078 16.0838 4.96953 15.8226L5.4508 14.375H7.50085C7.84586 14.375 8.12587 14.095 8.12587 13.75C8.12587 13.405 7.84586 13.125 7.50085 13.125Z" fill="#1A202C"/>
</svg>
