<svg width="20" height="20" viewBox="0 0 20 20" fill="none" xmlns="http://www.w3.org/2000/svg">
<path d="M10 10.625C9.3225 10.625 8.75 10.1963 8.75 9.6875C8.75 9.17875 9.3225 8.75 10 8.75C10.34 8.75 10.6575 8.855 10.8938 9.0475C11.16 9.265 11.5538 9.22625 11.7725 8.9575C11.9913 8.69 11.9512 8.29625 11.6825 8.07875C11.3812 7.8325 11.0162 7.6675 10.625 7.57875V6.875C10.625 6.53 10.345 6.25 10 6.25C9.655 6.25 9.375 6.53 9.375 6.875V7.5775C8.3 7.8225 7.5 8.67125 7.5 9.6875C7.5 10.8937 8.62125 11.875 10 11.875C10.6775 11.875 11.25 12.3037 11.25 12.8125C11.25 13.3213 10.6775 13.75 10 13.75C9.66 13.75 9.3425 13.645 9.10625 13.4525C8.84 13.235 8.44625 13.2725 8.2275 13.5425C8.00875 13.81 8.04875 14.2037 8.3175 14.4212C8.61875 14.6662 8.98375 14.8312 9.375 14.92V15.625C9.375 15.97 9.655 16.25 10 16.25C10.345 16.25 10.625 15.97 10.625 15.625V14.9225C11.7 14.6775 12.5 13.8288 12.5 12.8125C12.5 11.6063 11.3788 10.625 10 10.625Z" fill="#1A202C"/>
<path d="M16.25 2.5H13.75V1.875C13.75 1.53 13.47 1.25 13.125 1.25H11.7675C11.51 0.5225 10.815 0 10 0C9.185 0 8.49 0.5225 8.2325 1.25H6.875C6.53 1.25 6.25 1.53 6.25 1.875V2.5H3.75C3.04875 2.5 2.5 3.04875 2.5 3.75V18.75C2.5 19.4512 3.04875 20 3.75 20H16.25C16.9512 20 17.5 19.4512 17.5 18.75V3.75C17.5 3.04875 16.9512 2.5 16.25 2.5ZM7.5 2.5H8.75C9.095 2.5 9.375 2.22 9.375 1.875C9.375 1.53 9.65625 1.25 10 1.25C10.3438 1.25 10.625 1.53 10.625 1.875C10.625 2.22 10.905 2.5 11.25 2.5H12.5V3.75H7.5V2.5ZM16.25 18.75H3.75V3.75H6.25V4.375C6.25 4.72 6.53 5 6.875 5H13.125C13.47 5 13.75 4.72 13.75 4.375V3.75H16.25V18.75Z" fill="#1A202C"/>
</svg>
