<svg width="22" height="19" viewBox="0 0 22 19" fill="none" xmlns="http://www.w3.org/2000/svg">
<g clip-path="url(#clip0_342_684)">
<path d="M8.89767 4.6356C7.8553 3.14407 7.90615 1.71187 9.03327 0.703395C10.0926 -0.245757 11.6519 -0.228808 12.6943 0.728819C13.8045 1.75424 13.8468 3.19492 12.8129 4.6356C12.8638 4.72034 12.9146 4.82204 12.9655 4.91526C14.6434 7.72034 16.3299 10.5339 18.0078 13.339C18.1265 13.5424 18.2112 13.6949 18.5248 13.6356C19.9061 13.3644 21.2621 14.2373 21.6095 15.5848C21.9655 16.9492 21.2367 18.3559 19.9231 18.839C18.6011 19.322 17.1095 18.7203 16.5587 17.4322C16.3892 17.0424 16.2028 16.9661 15.8129 16.9661C12.4655 16.9831 9.11801 16.9831 5.77055 16.9661C5.45699 16.9661 5.31293 17.0424 5.18581 17.3475C4.65191 18.6356 3.27055 19.2881 1.94852 18.9068C0.660384 18.5339 -0.195548 17.1949 0.0247906 15.8983C0.253604 14.5254 1.44004 13.4746 2.7875 13.6186C3.43157 13.6864 3.65191 13.4407 3.93157 12.9661C5.53327 10.2458 7.17733 7.54238 8.79598 4.83051C8.83835 4.75424 8.87225 4.68645 8.89767 4.6356ZM4.68581 14.3305C4.87225 14.6525 5.09259 14.9322 5.20276 15.2458C5.31293 15.5424 5.46547 15.6102 5.7536 15.6102C9.15191 15.6017 12.5587 15.6017 15.957 15.6017C16.0926 15.6017 16.2282 15.5932 16.3129 15.5848C16.5587 15.1441 16.779 14.7542 17.0248 14.339C17.0248 14.3559 17.0248 14.322 17.0163 14.3051C15.2706 11.3898 13.5248 8.46611 11.7706 5.55933C11.7028 5.44916 11.4824 5.39831 11.3299 5.38984C11.0502 5.36441 10.7536 5.45763 10.4909 5.38984C10.1519 5.30509 10.0163 5.43221 9.86377 5.69492C8.9231 7.28814 7.97394 8.87289 7.01632 10.4576C6.22818 11.7542 5.44852 13.0593 4.68581 14.3305ZM10.8638 4.0678C11.6011 4.0678 12.2112 3.45763 12.2112 2.72034C12.2112 1.98306 11.6095 1.37289 10.8722 1.36441C10.118 1.35594 9.49937 1.98306 9.50784 2.73729C9.50784 3.46611 10.1265 4.0678 10.8638 4.0678ZM4.07564 16.2627C4.06716 15.5254 3.45699 14.9237 2.71971 14.9237C1.98242 14.9237 1.37225 15.5339 1.37225 16.2712C1.37225 17.0254 1.99089 17.6441 2.7536 17.6356C3.48242 17.6187 4.08411 17 4.07564 16.2627ZM20.3468 16.2712C20.3468 15.5339 19.7367 14.9237 18.9994 14.9237C18.2621 14.9237 17.6519 15.517 17.6434 16.2627C17.635 17.017 18.2536 17.6441 19.0078 17.6356C19.7451 17.6271 20.3468 17.017 20.3468 16.2712Z" fill="#1A202C"/>
</g>
<defs>
<clipPath id="clip0_342_684">
<rect width="21.7034" height="19" fill="white"/>
</clipPath>
</defs>
</svg>
