<svg width="20" height="20" viewBox="0 0 20 20" fill="none" xmlns="http://www.w3.org/2000/svg">
<g clip-path="url(#clip0_342_590)">
<path d="M12.4999 4.99988C11.8225 4.99988 11.25 4.57114 11.25 4.06241C11.25 3.55367 11.8225 3.12493 12.4999 3.12493C12.8399 3.12493 13.1574 3.22993 13.3937 3.42242C13.6612 3.63992 14.0549 3.60242 14.2724 3.33243C14.4911 3.06493 14.4511 2.67119 14.1824 2.4537C13.8811 2.20871 13.5162 2.04371 13.1249 1.95496V1.24998C13.1249 0.904992 12.8449 0.625 12.4999 0.625C12.1549 0.625 11.8749 0.904992 11.8749 1.24998V1.95246C10.8 2.19746 10 3.04618 10 4.06241C10 5.26862 11.1212 6.24985 12.4999 6.24985C13.1774 6.24985 13.7499 6.67858 13.7499 7.18732C13.7499 7.69606 13.1774 8.1248 12.4999 8.1248C12.1599 8.1248 11.8424 8.0198 11.6062 7.8273C11.34 7.61106 10.945 7.64856 10.7275 7.9173C10.5087 8.18479 10.5487 8.57853 10.8175 8.79728C11.1187 9.04227 11.4837 9.20727 11.8749 9.29601V9.99974C11.8749 10.3447 12.1549 10.6247 12.4999 10.6247C12.8449 10.6247 13.1249 10.3447 13.1249 9.99974V9.29726C14.1999 9.05227 14.9999 8.20354 14.9999 7.18732C14.9999 5.9811 13.8786 4.99988 12.4999 4.99988Z" fill="#1A202C"/>
<path d="M19.6057 10.73C19.2945 10.3287 18.8482 10.075 18.3457 10.0137C17.8545 9.94998 17.3633 10.09 16.977 10.3937L12.5234 13.8474C12.0934 14.1874 11.5522 14.3749 10.9997 14.3749H9.92723C10.741 13.5799 11.2497 12.4749 11.2497 11.2499C11.2497 10.905 10.9697 10.625 10.6247 10.625H3.7499V9.99998C3.7499 9.65499 3.46991 9.375 3.12491 9.375H0.624983C0.279992 9.375 0 9.65499 0 9.99998V18.7497C0 19.0947 0.279992 19.3747 0.624983 19.3747H3.12491C3.46991 19.3747 3.7499 19.0947 3.7499 18.7497V18.1248H12.0747C12.7559 18.1248 13.4321 17.8923 13.9821 17.4685L19.2682 13.3574C19.6695 13.0474 19.9245 12.6012 19.9857 12.0987C20.047 11.6024 19.9095 11.115 19.6057 10.73ZM2.49993 18.1248H1.24997V10.625H2.49993V18.1248ZM18.7457 11.9462C18.7245 12.1137 18.6395 12.2637 18.5032 12.3687L13.2184 16.4798C12.8884 16.7348 12.4809 16.8748 12.0747 16.8748H3.7499V11.8749H9.93723C9.64724 13.2999 8.38352 14.3749 6.87481 14.3749C6.52982 14.3749 6.24983 14.6549 6.24983 14.9998C6.24983 15.3448 6.52982 15.6248 6.87481 15.6248H10.9997C11.8322 15.6248 12.6484 15.3411 13.2959 14.8311L17.7495 11.3774C17.8758 11.2787 18.027 11.2299 18.1945 11.2537C18.362 11.2749 18.5132 11.3599 18.6207 11.4999C18.7207 11.6262 18.7645 11.7849 18.7457 11.9462Z" fill="#1A202C"/>
</g>
<defs>
<clipPath id="clip0_342_590">
<rect width="20" height="20" fill="white"/>
</clipPath>
</defs>
</svg>
