<svg width="20" height="20" viewBox="0 0 20 20" fill="none" xmlns="http://www.w3.org/2000/svg">
<g clip-path="url(#clip0_342_624)">
<path d="M16.5308 7.26362C16.3721 6.95488 15.9908 6.83738 15.6883 6.99488C15.3821 7.15362 15.2608 7.53111 15.4196 7.83735C15.9633 8.88608 16.2496 10.0673 16.2496 11.2498C16.2496 15.3859 12.8859 18.7496 8.74976 18.7496C4.61362 18.7496 1.24997 15.3859 1.24997 11.2498C1.24997 7.11362 4.61362 3.74997 8.74976 3.74997C9.93223 3.74997 11.1134 4.03621 12.1622 4.57994C12.4659 4.73869 12.8459 4.61869 13.0046 4.3112C13.1634 4.00496 13.0421 3.62747 12.7359 3.46872C11.5097 2.83624 10.131 2.5 8.74976 2.5C3.92614 2.5 0 6.42614 0 11.2498C0 16.0734 3.92614 19.9995 8.74976 19.9995C13.5734 19.9995 17.4995 16.0734 17.4995 11.2498C17.4995 9.86855 17.1633 8.48984 16.5308 7.26362Z" fill="#1A202C"/>
<path d="M19.9521 2.26119C19.8546 2.02745 19.6271 1.87495 19.3746 1.87495H18.1247V0.624984C18.1247 0.372491 17.9722 0.143747 17.7384 0.0474996C17.5059 -0.0487477 17.2372 0.0037508 17.0572 0.182496L15.1823 2.05744C15.066 2.17494 14.9998 2.33369 14.9998 2.49993V4.11614L10.0111 9.10475C9.63991 8.88476 9.21242 8.74976 8.74993 8.74976C7.37122 8.74976 6.25 9.87098 6.25 11.2497C6.25 12.6284 7.37122 13.7496 8.74993 13.7496C10.1286 13.7496 11.2499 12.6284 11.2499 11.2497C11.2499 10.7872 11.1149 10.3597 10.8949 9.98848L15.8835 4.99986H17.4997C17.6659 4.99986 17.8247 4.93362 17.9422 4.81737L19.8171 2.94242C19.9959 2.76368 20.0496 2.49493 19.9521 2.26119ZM8.74993 12.4997C8.05995 12.4997 7.49997 11.9397 7.49997 11.2497C7.49997 10.5597 8.05995 9.99973 8.74993 9.99973C8.85743 9.99973 8.95493 10.036 9.05492 10.061L8.30744 10.8072C8.0637 11.0509 8.0637 11.4472 8.30744 11.6909C8.42994 11.8134 8.58994 11.8747 8.74993 11.8747C8.90993 11.8747 9.06992 11.8134 9.19242 11.6922L9.93865 10.946C9.96365 11.0447 9.9999 11.1422 9.9999 11.2497C9.9999 11.9397 9.43991 12.4997 8.74993 12.4997ZM17.241 3.7499H16.2497V2.75868L16.8747 2.13369V2.49993C16.8747 2.84492 17.1547 3.12492 17.4997 3.12492H17.8659L17.241 3.7499Z" fill="#1A202C"/>
<path d="M14.1784 9.78614C14.0885 9.4524 13.751 9.25615 13.4122 9.34615C13.0785 9.43615 12.8822 9.78114 12.9722 10.1124C13.0735 10.4861 13.1247 10.8674 13.1247 11.2498C13.1247 13.6623 11.1623 15.6247 8.74985 15.6247C6.33741 15.6247 4.37497 13.6623 4.37497 11.2498C4.37497 8.83741 6.33741 6.87497 8.74985 6.87497C9.13234 6.87497 9.51358 6.92621 9.88607 7.02746C10.2236 7.11871 10.5623 6.92121 10.6523 6.58747C10.7423 6.25498 10.546 5.91124 10.2123 5.82124C9.73482 5.69125 9.24233 5.625 8.74985 5.625C5.64868 5.625 3.125 8.14868 3.125 11.2498C3.125 14.351 5.64868 16.8747 8.74985 16.8747C11.851 16.8747 14.3747 14.351 14.3747 11.2498C14.3747 10.7574 14.3084 10.2649 14.1784 9.78614Z" fill="#1A202C"/>
</g>
<defs>
<clipPath id="clip0_342_624">
<rect width="20" height="20" fill="white"/>
</clipPath>
</defs>
</svg>
