<svg width="20" height="20" viewBox="0 0 20 20" fill="none" xmlns="http://www.w3.org/2000/svg">
<g clip-path="url(#clip0_342_607)">
<path d="M10 0C4.48625 0 0 4.48625 0 10C0 15.5137 4.48625 20 10 20C15.5137 20 20 15.5137 20 10C20 4.48625 15.5137 0 10 0ZM10.625 18.7188V16.875C10.625 16.53 10.345 16.25 10 16.25C9.655 16.25 9.375 16.53 9.375 16.875V18.7188C5.04875 18.41 1.59 14.9512 1.28125 10.625H3.125C3.47 10.625 3.75 10.345 3.75 10C3.75 9.655 3.47 9.375 3.125 9.375H1.28125C1.59 5.04875 5.04875 1.59 9.375 1.28125V3.125C9.375 3.47 9.655 3.75 10 3.75C10.345 3.75 10.625 3.47 10.625 3.125V1.28125C14.9512 1.58875 18.41 5.04875 18.7188 9.375H16.875C16.53 9.375 16.25 9.655 16.25 10C16.25 10.345 16.53 10.625 16.875 10.625H18.7188C18.41 14.9512 14.9512 18.41 10.625 18.7188Z" fill="#1A202C"/>
<path d="M10 9.375C9.3225 9.375 8.75 8.94625 8.75 8.4375C8.75 7.92875 9.3225 7.5 10 7.5C10.34 7.5 10.6575 7.605 10.8925 7.7975C11.1587 8.015 11.5525 7.97375 11.7725 7.7075C11.99 7.44 11.95 7.04625 11.6825 6.8275C11.3812 6.5825 11.0162 6.4175 10.625 6.32875V5.625C10.625 5.28 10.345 5 10 5C9.655 5 9.375 5.28 9.375 5.625V6.3275C8.3 6.5725 7.5 7.42125 7.5 8.4375C7.5 9.64375 8.62125 10.625 10 10.625C10.6775 10.625 11.25 11.0537 11.25 11.5625C11.25 12.0713 10.6775 12.5 10 12.5C9.66 12.5 9.3425 12.395 9.1075 12.2025C8.83875 11.9838 8.44625 12.025 8.22875 12.2925C8.01125 12.56 8.05125 12.9538 8.31875 13.1725C8.62 13.4175 8.985 13.5825 9.37625 13.6725V14.375C9.375 14.72 9.655 15 10 15C10.345 15 10.625 14.72 10.625 14.375V13.6725C11.7 13.4275 12.5 12.5788 12.5 11.5625C12.5 10.3563 11.3788 9.375 10 9.375Z" fill="#1A202C"/>
</g>
<defs>
<clipPath id="clip0_342_607">
<rect width="20" height="20" fill="white"/>
</clipPath>
</defs>
</svg>
