<svg width="56" height="56" viewBox="0 0 56 56" fill="none" xmlns="http://www.w3.org/2000/svg">
<path d="M15.3116 5.22461H40.6306C46.2105 5.22461 50.75 9.76411 50.75 15.344V40.6595C50.75 46.1834 46.2105 50.6756 40.6306 50.6756H15.3116C9.78863 50.6756 5.2955 46.1825 5.2955 40.6595V15.344C5.2955 9.76411 9.78863 5.22461 15.3116 5.22461ZM32.5824 35.5022C32.9236 35.8374 33.3664 36.0045 33.8091 36.0045C34.2624 36.0045 34.7148 35.8304 35.0569 35.4812L41.2554 29.1769C41.3858 29.0456 41.4908 28.8977 41.5704 28.7402C41.5704 28.7385 41.573 28.7367 41.5713 28.7376C41.5721 28.7359 41.5721 28.7341 41.5721 28.735C41.5721 28.7341 41.5704 28.7394 41.573 28.7315C41.573 28.7306 41.5739 28.7297 41.5739 28.7289C41.5931 28.6895 41.6115 28.6492 41.6281 28.6081C41.7078 28.4121 41.7533 28.1986 41.7568 27.9755C41.7568 27.9746 41.7568 27.9737 41.7568 27.9729V27.972C41.7568 27.9711 41.7568 27.9711 41.7568 27.9702C41.7568 27.9606 41.7568 27.9519 41.7568 27.9422C41.7568 27.9405 41.7568 27.9396 41.7568 27.9396C41.7568 27.9379 41.7568 27.9379 41.7568 27.9361C41.755 27.7007 41.7069 27.4776 41.622 27.2737C41.6168 27.2615 41.6124 27.251 41.6071 27.2387C41.6071 27.2387 41.6071 27.2379 41.6062 27.237V27.2361C41.6062 27.2352 41.6062 27.2352 41.6054 27.2344V27.2335C41.6054 27.2335 41.6045 27.2326 41.6045 27.2309V27.23C41.6045 27.2291 41.6036 27.2291 41.6036 27.2282C41.6036 27.2282 41.6036 27.2282 41.6036 27.2274C41.5188 27.0384 41.398 26.8616 41.2423 26.7067L35.0446 20.51C34.3621 19.8266 33.2526 19.8266 32.5701 20.51C31.8867 21.1934 31.8867 22.3011 32.5701 22.9845L35.7822 26.1975H23.268C22.302 26.1975 21.518 26.9815 21.518 27.9475C21.518 28.9135 22.302 29.6975 23.268 29.6975H35.8348L32.5614 33.026C31.8832 33.7172 31.8929 34.825 32.5824 35.5022ZM14.2861 33.425C14.2861 36.3851 16.6477 38.7931 19.5501 38.7931H22.3387C23.3047 38.7931 24.0887 38.0091 24.0887 37.0431C24.0887 36.0771 23.3047 35.2931 22.3387 35.2931H19.5492C18.5762 35.2931 17.7853 34.4549 17.7853 33.425V22.5794C17.7853 21.5495 18.5762 20.7112 19.5492 20.7112H22.3387C23.3047 20.7112 24.0887 19.9272 24.0887 18.9612C24.0887 17.9952 23.3047 17.2112 22.3387 17.2112H19.5492C16.6469 17.2112 14.2853 19.6192 14.2853 22.5794L14.2861 33.425Z" fill="#DC3C22"/>
</svg>
