<svg width="80" height="80" viewBox="0 0 80 80" fill="none" xmlns="http://www.w3.org/2000/svg">
<path d="M72.5 40C72.5 42.775 69.1 45 68.4 47.625C67.7 50.25 69.5 53.95 68.15 56.25C66.8 58.55 62.7 58.875 60.8 60.8C58.9 62.725 58.6 66.8 56.25 68.15C53.9 69.5 50.25 67.7 47.625 68.4C45 69.1 42.775 72.5 40 72.5C37.225 72.5 35 69.1 32.5 68.4C30 67.7 26.175 69.5 23.875 68.15C21.575 66.8 21.25 62.7 19.325 60.8C17.4 58.9 13.325 58.6 11.975 56.25C10.625 53.9 12.425 50.25 11.725 47.625C11.025 45 7.5 42.775 7.5 40C7.5 37.225 10.9 35 11.6 32.5C12.3 30 10.5 26.175 11.85 23.875C13.2 21.575 17.3 21.125 19.2 19.2C21.1 17.275 21.4 13.2 23.75 11.85C26.1 10.5 29.75 12.3 32.375 11.6C35 10.9 37.225 7.5 40 7.5C42.775 7.5 45 10.9 47.625 11.6C50.25 12.3 53.95 10.5 56.25 11.85C58.55 13.2 58.875 17.3 60.8 19.2C62.725 21.1 66.8 21.4 68.15 23.75C69.5 26.1 67.7 29.75 68.4 32.375C69.1 35 72.5 37.225 72.5 40Z" fill="#109138"/>
<path d="M40 61.25C51.736 61.25 61.25 51.736 61.25 40C61.25 28.2639 51.736 18.75 40 18.75C28.2639 18.75 18.75 28.2639 18.75 40C18.75 51.736 28.2639 61.25 40 61.25Z" fill="#20BF55"/>
<path d="M37.8253 45.9249C37.579 45.926 37.3349 45.878 37.1073 45.7835C36.8798 45.6891 36.6734 45.5502 36.5003 45.3749L30.6753 39.6499C30.3242 39.2983 30.127 38.8218 30.127 38.3249C30.127 37.828 30.3242 37.3514 30.6753 36.9999C31.0269 36.6488 31.5034 36.4515 32.0003 36.4515C32.4972 36.4515 32.9737 36.6488 33.3253 36.9999L37.8253 41.4499L46.6753 32.7249C47.03 32.3735 47.5098 32.1774 48.0091 32.1797C48.5085 32.1821 48.9864 32.3827 49.3378 32.7374C49.6892 33.0921 49.8853 33.5719 49.883 34.0712C49.8806 34.5705 49.68 35.0485 49.3253 35.3999L39.1253 45.3999C38.9565 45.5723 38.7539 45.7079 38.5302 45.7983C38.3065 45.8886 38.0665 45.9317 37.8253 45.9249Z" fill="#EDEBEA"/>
</svg>
