<svg width="14" height="14" viewBox="0 0 14 14" fill="none" xmlns="http://www.w3.org/2000/svg">
<path d="M1.75046 5.83328H1.71546C1.63881 5.82882 1.56379 5.80927 1.49471 5.77576C1.42563 5.74224 1.36385 5.69542 1.31291 5.63797C1.26196 5.58052 1.22286 5.51358 1.19785 5.44099C1.17283 5.3684 1.16239 5.29158 1.16713 5.21495C1.21379 4.38662 1.38296 2.91662 1.97213 2.45578C4.04296 0.839949 9.95796 0.845782 12.0288 2.45578C12.6121 2.92245 12.7871 4.38662 12.8338 5.21495C12.8384 5.29155 12.8279 5.36831 12.8028 5.44084C12.7777 5.51338 12.7386 5.58026 12.6877 5.63768C12.6368 5.6951 12.575 5.74192 12.506 5.77548C12.437 5.80905 12.3621 5.82869 12.2855 5.83328C12.2089 5.83788 12.1321 5.82734 12.0596 5.80227C11.987 5.7772 11.9201 5.73809 11.8627 5.68718C11.8053 5.63626 11.7585 5.57453 11.7249 5.50552C11.6914 5.4365 11.6717 5.36155 11.6671 5.28495C11.6602 4.62542 11.5317 3.97283 11.288 3.35995C9.69546 2.11745 4.28796 2.11745 2.69546 3.35995C2.46415 3.97578 2.34177 4.62716 2.33379 5.28495C2.32486 5.43351 2.25949 5.57305 2.15104 5.67498C2.0426 5.77692 1.89929 5.83355 1.75046 5.83328Z" fill="white"/>
<path d="M7.00158 12.8342C6.33074 12.8342 4.08491 12.7583 3.10491 11.7492C2.33491 10.9208 2.29408 9.40416 2.33491 8.56999C2.46908 7.00082 3.08158 4.88916 4.16074 4.03749C5.23991 3.18582 8.71657 3.13332 9.84824 4.03749C10.9799 4.94166 11.5399 7.02999 11.6449 8.62832C11.6974 9.44499 11.6741 10.9267 10.8982 11.7433C9.91824 12.7583 7.67241 12.8342 7.00158 12.8342ZM7.00158 4.51582C6.26518 4.46393 5.52868 4.61527 4.87241 4.95332C4.23074 5.47249 3.62991 7.09416 3.50158 8.65749C3.42574 9.71333 3.59491 10.5883 3.93324 10.9442C4.27158 11.3 5.60741 11.6675 7.00158 11.6675C8.39574 11.6675 9.64991 11.37 10.0524 10.9442C10.3907 10.5883 10.5541 9.77749 10.4841 8.70999C10.3791 7.13499 9.77824 5.48416 9.11908 4.95332C8.4679 4.61275 7.73441 4.4612 7.00158 4.51582Z" fill="white"/>
<path d="M7.0013 9.91732C6.84659 9.91732 6.69822 9.85586 6.58882 9.74646C6.47943 9.63707 6.41797 9.48869 6.41797 9.33398V6.41732C6.41797 6.26261 6.47943 6.11424 6.58882 6.00484C6.69822 5.89544 6.84659 5.83398 7.0013 5.83398C7.15601 5.83398 7.30438 5.89544 7.41378 6.00484C7.52318 6.11424 7.58464 6.26261 7.58464 6.41732V9.33398C7.58464 9.48869 7.52318 9.63707 7.41378 9.74646C7.30438 9.85586 7.15601 9.91732 7.0013 9.91732Z" fill="white"/>
<path d="M7.00024 10.5009C6.31191 10.5009 5.50691 9.63173 5.08691 9.11839C5.03865 9.05864 5.00263 8.98997 4.98091 8.9163C4.95919 8.84263 4.95219 8.7654 4.96031 8.68902C4.96844 8.61264 4.99153 8.53862 5.02826 8.47116C5.065 8.40371 5.11466 8.34415 5.17441 8.29589C5.23416 8.24763 5.30283 8.21161 5.3765 8.18989C5.45018 8.16817 5.5274 8.16117 5.60378 8.1693C5.68016 8.17742 5.75418 8.20051 5.82164 8.23725C5.88909 8.27398 5.94865 8.32364 5.99691 8.38339C6.27489 8.75505 6.61419 9.0766 7.00024 9.33423C7.38534 9.0801 7.72459 8.76255 8.00358 8.39506C8.05184 8.33531 8.11139 8.28565 8.17885 8.24891C8.2463 8.21218 8.32033 8.18909 8.3967 8.18096C8.47308 8.17284 8.55031 8.17984 8.62398 8.20156C8.69765 8.22328 8.76632 8.2593 8.82608 8.30756C8.88583 8.35582 8.93549 8.41538 8.97222 8.48283C9.00896 8.55028 9.03205 8.62431 9.04017 8.70069C9.0483 8.77706 9.0413 8.85429 9.01958 8.92796C8.99786 9.00164 8.96184 9.07031 8.91357 9.13006C8.49358 9.63173 7.68858 10.5009 7.00024 10.5009Z" fill="white"/>
</svg>
