<svg width="487" height="173" viewBox="0 0 487 173" fill="none" xmlns="http://www.w3.org/2000/svg">
<path d="M366.559 38.0822C365.698 39.5192 363.961 40.0622 362.68 39.2952C361.399 38.5282 361.058 36.7402 361.919 35.3032C362.78 33.8662 364.517 33.3232 365.798 34.0902C367.079 34.8572 367.42 36.6452 366.559 38.0822Z" fill="#40A0FF"/>
<path d="M228.488 84.594C227.627 86.031 225.89 86.5739 224.609 85.8069C223.328 85.0389 222.987 83.2519 223.848 81.8149C224.709 80.3779 226.446 79.835 227.727 80.602C229.008 81.369 229.349 83.156 228.488 84.594Z" fill="#FFC416"/>
<path d="M238.523 5.98508C239.952 6.85908 240.479 8.60106 239.7 9.87506C238.921 11.1491 237.13 11.4741 235.701 10.6001C234.272 9.72607 233.745 7.98409 234.524 6.71009C235.303 5.43509 237.094 5.11108 238.523 5.98508Z" fill="#40A0FF"/>
<path d="M57.4435 67.4182C56.5825 68.8552 54.8455 69.3982 53.5645 68.6312C52.2835 67.8642 51.9425 66.0762 52.8035 64.6392C53.6645 63.2022 55.4015 62.6592 56.6825 63.4262C57.9635 64.1942 58.3045 65.9812 57.4435 67.4182Z" fill="#40A0FF"/>
<path d="M126.904 96.6959C128.058 95.4809 129.871 95.3299 130.954 96.3579C132.037 97.3859 131.98 99.2049 130.826 100.42C129.673 101.635 127.859 101.786 126.776 100.758C125.694 99.7299 125.751 97.9109 126.904 96.6959Z" fill="#40A0FF"/>
<path d="M468.218 82.687C469.683 81.953 471.254 82.122 471.726 83.065C472.199 84.008 471.394 85.368 469.929 86.102C468.464 86.836 466.893 86.667 466.42 85.724C465.948 84.781 466.753 83.421 468.218 82.687Z" fill="#FF6D55"/>
<path d="M363.681 168.564C365.146 167.83 366.717 167.999 367.189 168.942C367.662 169.885 366.857 171.245 365.392 171.979C363.927 172.713 362.356 172.544 361.883 171.601C361.411 170.658 362.216 169.298 363.681 168.564Z" fill="#FFC416"/>
<path d="M242.929 60.5327C244.394 59.7987 245.965 59.9677 246.438 60.9107C246.91 61.8537 246.106 63.2137 244.64 63.9477C243.175 64.6817 241.604 64.5127 241.132 63.5697C240.659 62.6267 241.464 61.2667 242.929 60.5327Z" fill="#FFC416"/>
<path d="M444.543 28.769C446.008 28.035 447.579 28.204 448.052 29.147C448.524 30.09 447.72 31.45 446.254 32.184C444.789 32.918 443.218 32.749 442.746 31.806C442.274 30.863 443.078 29.503 444.543 28.769Z" fill="#FF6D55"/>
<path d="M219.254 6.61669C220.719 5.88269 222.29 6.05168 222.763 6.99468C223.236 7.93768 222.431 9.29767 220.965 10.0317C219.5 10.7657 217.929 10.5967 217.457 9.65368C216.985 8.71068 217.789 7.35069 219.254 6.61669Z" fill="#FF6D55"/>
<path d="M405.516 94.8421C407.086 94.3731 408.604 94.8131 408.905 95.8231C409.207 96.8341 408.178 98.0331 406.608 98.5021C405.038 98.9711 403.52 98.5311 403.218 97.5211C402.917 96.5111 403.945 95.3111 405.516 94.8421Z" fill="#FFC416"/>
<path d="M354.657 59.0081C356.227 58.5391 357.745 58.9791 358.046 59.9891C358.348 61.0001 357.319 62.1991 355.749 62.6681C354.179 63.1371 352.661 62.6971 352.359 61.6871C352.059 60.6761 353.087 59.4761 354.657 59.0081Z" fill="#FF6D55"/>
<path d="M41.6688 14.3276C43.1338 13.5936 44.7048 13.7626 45.1768 14.7056C45.6488 15.6486 44.8448 17.0086 43.3798 17.7426C41.9148 18.4766 40.3438 18.3076 39.8718 17.3646C39.3988 16.4206 40.2038 15.0616 41.6688 14.3276Z" fill="#FFC416"/>
<path d="M22.6997 27.4022C23.8267 26.8372 25.0357 26.9672 25.3997 27.6932C25.7637 28.4192 25.1437 29.4652 24.0167 30.0302C22.8897 30.5952 21.6807 30.4642 21.3167 29.7392C20.9537 29.0132 21.5727 27.9672 22.6997 27.4022Z" fill="#FF6D55"/>
<path d="M39.5807 100.815C38.7847 99.3823 38.8877 97.8063 39.8097 97.2943C40.7317 96.7823 42.1247 97.5283 42.9197 98.9613C43.7157 100.394 43.6127 101.97 42.6907 102.482C41.7687 102.994 40.3767 102.247 39.5807 100.815Z" fill="#FFC416"/>
<path d="M435.768 133.664C437.444 133.664 438.802 132.305 438.802 130.63C438.802 128.954 437.444 127.596 435.768 127.596C434.093 127.596 432.734 128.954 432.734 130.63C432.734 132.305 434.093 133.664 435.768 133.664Z" fill="#FF6D55"/>
<path d="M482.987 106.809C484.662 106.809 486.021 108.167 486.021 109.843C486.021 111.518 484.663 112.877 482.987 112.877C481.312 112.877 479.953 111.519 479.953 109.843C479.954 108.167 481.312 106.809 482.987 106.809Z" fill="#FF6D55"/>
<path d="M430.721 33.2422C432.396 33.2422 433.755 34.6002 433.755 36.2762C433.755 37.9512 432.397 39.3102 430.721 39.3102C429.045 39.3102 427.688 37.9522 427.688 36.2762C427.689 34.6002 429.046 33.2422 430.721 33.2422Z" fill="#FF6D55"/>
<path d="M275.907 14.9442C276.403 16.7302 275.814 18.4532 274.591 18.7932C273.368 19.1332 271.975 17.9613 271.479 16.1753C270.983 14.3893 271.572 12.6663 272.794 12.3263C274.017 11.9863 275.41 13.1582 275.907 14.9442Z" fill="#40A0FF"/>
<path d="M342.524 92.9733C344.367 93.1703 345.751 94.3533 345.616 95.6153C345.481 96.8773 343.878 97.7403 342.035 97.5433C340.192 97.3463 338.808 96.1633 338.943 94.9013C339.078 93.6393 340.681 92.7763 342.524 92.9733Z" fill="#40A0FF"/>
<path d="M251.825 67.6886C253.632 67.2756 255.326 67.9436 255.609 69.1806C255.892 70.4176 254.657 71.7556 252.85 72.1686C251.043 72.5816 249.349 71.9136 249.066 70.6766C248.783 69.4396 250.018 68.1016 251.825 67.6886Z" fill="#40A0FF"/>
<path d="M99.6096 42.3952C101.453 42.5922 102.837 43.7752 102.702 45.0372C102.567 46.2992 100.963 47.1622 99.1206 46.9652C97.2776 46.7682 95.8936 45.5852 96.0286 44.3232C96.1636 43.0612 97.7676 42.1982 99.6096 42.3952Z" fill="#40A0FF"/>
<path d="M56.4016 27.2268C58.1956 27.6908 59.3926 29.0628 59.0746 30.2918C58.7566 31.5208 57.0446 32.1398 55.2496 31.6758C53.4556 31.2118 52.2586 29.8398 52.5766 28.6108C52.8946 27.3818 54.6076 26.7618 56.4016 27.2268Z" fill="#40A0FF"/>
<path d="M125.692 -0.966987C127.486 -0.502987 128.683 0.869016 128.365 2.09802C128.047 3.32702 126.335 3.94602 124.541 3.48202C122.747 3.01802 121.55 1.64502 121.868 0.417016C122.185 -0.811984 123.897 -1.43099 125.692 -0.966987Z" fill="#40A0FF"/>
<path d="M158.374 6.77344C160.049 6.77344 161.408 8.13143 161.408 9.80743C161.408 11.4834 160.05 12.8414 158.374 12.8414C156.698 12.8414 155.34 11.4834 155.34 9.80743C155.34 8.13143 156.698 6.77344 158.374 6.77344Z" fill="#FF6D55"/>
<path d="M164.212 149.486C165.887 149.486 167.246 148.128 167.246 146.452C167.246 144.776 165.887 143.418 164.212 143.418C162.536 143.418 161.178 144.776 161.178 146.452C161.178 148.128 162.536 149.486 164.212 149.486Z" fill="#FF6D55"/>
<path d="M9.61408 81.2617C11.2891 81.2617 12.6481 82.6197 12.6481 84.2957C12.6481 85.9707 11.2901 87.3297 9.61408 87.3297C7.93808 87.3297 6.58008 85.9717 6.58008 84.2957C6.58008 82.6207 7.93908 81.2617 9.61408 81.2617Z" fill="#FFC416"/>
<path d="M159.167 49.0645C160.842 49.0645 162.201 50.4224 162.201 52.0984C162.201 53.7734 160.843 55.1324 159.167 55.1324C157.491 55.1324 156.133 53.7744 156.133 52.0984C156.133 50.4224 157.492 49.0645 159.167 49.0645Z" fill="#FF6D55"/>
</svg>
