<svg width="20" height="20" viewBox="0 0 20 20" fill="none" xmlns="http://www.w3.org/2000/svg">
<path d="M16.6667 10.0003V5.83366C16.6667 3.53366 14.8 1.66699 12.5 1.66699H7.5C5.2 1.66699 3.33333 3.53366 3.33333 5.83366V10.0003C1.49167 10.0003 0 11.492 0 13.3337V15.0003C0 16.842 1.49167 18.3337 3.33333 18.3337H16.6667C18.5083 18.3337 20 16.842 20 15.0003V13.3337C20 11.492 18.5083 10.0003 16.6667 10.0003ZM5 5.83366C5 4.45866 6.125 3.33366 7.5 3.33366H12.5C13.875 3.33366 15 4.45866 15 5.83366V13.3337H5V5.83366ZM18.3333 15.0003C18.3333 15.917 17.5833 16.667 16.6667 16.667H3.33333C2.41667 16.667 1.66667 15.917 1.66667 15.0003V13.3337C1.66667 12.417 2.41667 11.667 3.33333 11.667V14.167C3.33333 14.6253 3.70833 15.0003 4.16667 15.0003H15.8333C16.2917 15.0003 16.6667 14.6253 16.6667 14.167V11.667C17.5833 11.667 18.3333 12.417 18.3333 13.3337V15.0003ZM7.74167 9.40866L8.81667 8.33366L7.74167 7.25866C7.41667 6.93366 7.41667 6.40866 7.74167 6.08366C8.06667 5.75866 8.59167 5.75866 8.91667 6.08366L9.99167 7.15866L11.0667 6.08366C11.3917 5.75866 11.9167 5.75866 12.2417 6.08366C12.5667 6.40866 12.5667 6.93366 12.2417 7.25866L11.1667 8.33366L12.2417 9.40866C12.5667 9.73366 12.5667 10.2587 12.2417 10.5837C12.075 10.7503 11.8667 10.8253 11.65 10.8253C11.4333 10.8253 11.225 10.742 11.0583 10.5837L9.98333 9.50866L8.90833 10.5837C8.74167 10.7503 8.53333 10.8253 8.31667 10.8253C8.1 10.8253 7.89167 10.742 7.725 10.5837C7.4 10.2587 7.4 9.73366 7.725 9.40866H7.74167Z" fill="#1A202C"/>
</svg>
