<svg width="20" height="20" viewBox="0 0 20 20" fill="none" xmlns="http://www.w3.org/2000/svg">
<g clip-path="url(#clip0_342_507)">
<path d="M14.1667 8.33301C10.9508 8.33301 8.33333 10.9505 8.33333 14.1663C8.33333 17.3822 10.9508 19.9997 14.1667 19.9997C17.3825 19.9997 20 17.3822 20 14.1663C20 10.9505 17.3825 8.33301 14.1667 8.33301ZM14.1667 18.333C11.8692 18.333 10 16.4638 10 14.1663C10 11.8688 11.8692 9.99967 14.1667 9.99967C16.4642 9.99967 18.3333 11.8688 18.3333 14.1663C18.3333 16.4638 16.4642 18.333 14.1667 18.333ZM16.3242 12.243L17.4925 13.4313L14.6125 16.2638C14.3558 16.5213 14.0067 16.6655 13.635 16.6655C13.2633 16.6655 12.915 16.5205 12.6525 16.258L11.115 14.768L12.2758 13.5713L13.6342 14.888L16.3242 12.2422V12.243ZM4.58333 9.99967C5.27333 9.99967 5.83333 10.5597 5.83333 11.2497C5.83333 11.9397 5.27333 12.4997 4.58333 12.4997C3.89333 12.4997 3.33333 11.9397 3.33333 11.2497C3.33333 10.5597 3.89333 9.99967 4.58333 9.99967ZM17.5 0.833008H2.5C1.12167 0.833008 0 1.95467 0 3.33301V15.833H6.85917C6.7375 15.2963 6.66667 14.7397 6.66667 14.1663H1.66667V6.66634H18.3333V7.93134C18.9633 8.35301 19.5242 8.86884 20 9.45717V3.33301C20 1.95467 18.8783 0.833008 17.5 0.833008ZM1.66667 3.33301C1.66667 2.87384 2.04083 2.49967 2.5 2.49967H17.5C17.96 2.49967 18.3333 2.87384 18.3333 3.33301V4.99967H1.66667V3.33301Z" fill="#1A202C"/>
</g>
<defs>
<clipPath id="clip0_342_507">
<rect width="20" height="20" fill="white"/>
</clipPath>
</defs>
</svg>
