<svg width="20" height="20" viewBox="0 0 20 20" fill="none" xmlns="http://www.w3.org/2000/svg">
<path d="M15.8333 17.5H4.16667C1.86917 17.5 0 15.6308 0 13.3333V12.565C0 12.105 0.373333 11.7317 0.833333 11.7317C0.853333 11.7317 0.8775 11.7325 0.901667 11.7342C1.82333 11.7167 2.56833 10.9608 2.56833 10.0342C2.56833 9.1075 1.82333 8.35083 0.901667 8.33333C0.8775 8.335 0.853333 8.33583 0.834167 8.33583C0.374167 8.33583 0.000833333 7.9625 0.000833333 7.5025V6.66583C0 4.36917 1.86917 2.5 4.16667 2.5H15.8333C18.1308 2.5 20 4.36917 20 6.66667V7.5C20 7.96 19.6267 8.33333 19.1667 8.33333C18.2475 8.33333 17.5 9.08083 17.5 10C17.5 10.9192 18.2475 11.6667 19.1667 11.6667C19.6267 11.6667 20 12.04 20 12.5V13.3333C20 15.6308 18.1308 17.5 15.8333 17.5ZM1.66667 13.3058V13.3333C1.66667 14.7117 2.78833 15.8333 4.16667 15.8333H15.8333C17.2117 15.8333 18.3333 14.7117 18.3333 13.3333V13.2283C16.8975 12.8575 15.8333 11.5508 15.8333 10C15.8333 8.44917 16.8975 7.14333 18.3333 6.77167V6.66667C18.3333 5.28833 17.2117 4.16667 15.8333 4.16667H4.16667C2.78833 4.16667 1.66667 5.28833 1.66667 6.66667V6.7625C3.13917 7.1225 4.235 8.4525 4.235 10.0342C4.235 11.6158 3.13917 12.9458 1.66667 13.3058Z" fill="#1A202C"/>
</svg>
