<svg width="20" height="20" viewBox="0 0 20 20" fill="none" xmlns="http://www.w3.org/2000/svg">
<g clip-path="url(#clip0_342_483)">
<path d="M10 13.3332C8.16167 13.3332 6.66667 11.8382 6.66667 9.99986C6.66667 8.16152 8.16167 6.66652 10 6.66652C11.8383 6.66652 13.3333 8.16152 13.3333 9.99986C13.3333 11.8382 11.8383 13.3332 10 13.3332ZM10 8.33319C9.08083 8.33319 8.33333 9.08069 8.33333 9.99986C8.33333 10.919 9.08083 11.6665 10 11.6665C10.9192 11.6665 11.6667 10.919 11.6667 9.99986C11.6667 9.08069 10.9192 8.33319 10 8.33319ZM4.16667 5.83319C3.70667 5.83319 3.33333 6.20652 3.33333 6.66652C3.33333 7.12652 3.70667 7.49986 4.16667 7.49986C4.62667 7.49986 5 7.12652 5 6.66652C5 6.20652 4.62667 5.83319 4.16667 5.83319ZM15 8.33319C15 8.79319 15.3733 9.16652 15.8333 9.16652C16.2933 9.16652 16.6667 8.79319 16.6667 8.33319C16.6667 7.87319 16.2933 7.49986 15.8333 7.49986C15.3733 7.49986 15 7.87319 15 8.33319ZM4.16667 10.8332C3.70667 10.8332 3.33333 11.2065 3.33333 11.6665C3.33333 12.1265 3.70667 12.4999 4.16667 12.4999C4.62667 12.4999 5 12.1265 5 11.6665C5 11.2065 4.62667 10.8332 4.16667 10.8332ZM15 13.3332C15 13.7932 15.3733 14.1665 15.8333 14.1665C16.2933 14.1665 16.6667 13.7932 16.6667 13.3332C16.6667 12.8732 16.2933 12.4999 15.8333 12.4999C15.3733 12.4999 15 12.8732 15 13.3332ZM14.1675 17.4999C12.8008 17.4999 11.2608 17.0599 9.77167 16.634C8.39333 16.2399 6.9675 15.8332 5.83417 15.8332C3.55833 15.8332 1.21 16.919 1.18583 16.929L0 17.484V5.96486C0 5.02486 0.515 4.17486 1.34583 3.74569C2.45 3.17652 4.12333 2.49902 5.83417 2.49902C7.21917 2.49902 8.55583 2.94486 9.8475 3.37486C11.0667 3.78152 12.2183 4.16569 13.3333 4.16569C14.4883 4.16569 15.4308 3.86402 16.1883 3.62152C16.44 3.54069 16.6692 3.46736 16.8783 3.41236C17.6267 3.21319 18.4075 3.37236 19.0225 3.84569C19.6442 4.32402 20.0008 5.04819 20.0008 5.83236V16.0699L19.5117 16.2915C19.4025 16.3415 16.8175 17.4999 14.1675 17.4999ZM5.83417 14.1665C7.20083 14.1665 8.74083 14.6065 10.23 15.0324C11.6092 15.4265 13.0342 15.8332 14.1675 15.8332C15.8342 15.8332 17.5258 15.279 18.3342 14.9732V5.83319C18.3342 5.56986 18.2142 5.32736 18.0058 5.16736C17.8875 5.07652 17.6375 4.93736 17.3042 5.02486C17.12 5.07402 16.9175 5.13902 16.6958 5.20986C15.8742 5.47236 14.7475 5.83319 13.3333 5.83319C11.9483 5.83319 10.6117 5.38736 9.32 4.95736C8.10083 4.55069 6.94917 4.16652 5.83417 4.16652C4.385 4.16652 2.87833 4.83152 2.10917 5.22736C1.83583 5.36819 1.66583 5.65069 1.66583 5.96486V14.9499C2.69083 14.594 4.25167 14.1665 5.83417 14.1665Z" fill="#1A202C"/>
</g>
<defs>
<clipPath id="clip0_342_483">
<rect width="20" height="20" fill="white"/>
</clipPath>
</defs>
</svg>
